<?xml version="1.0" standalone="no"?><!DOCTYPE svg PUBLIC "-//W3C//DTD SVG 1.1//EN" "http://www.w3.org/Graphics/SVG/1.1/DTD/svg11.dtd"><svg class="icon" width="200px" height="200.00px" viewBox="0 0 1024 1024" version="1.1" xmlns="http://www.w3.org/2000/svg"><path fill="#333333" d="M247.6032 649.9328C246.6816 648.704 248.32 651.1616 247.6032 649.9328L247.6032 649.9328 247.6032 649.9328zM511.6928 62.976c-195.072 0-353.1776 157.5936-353.1776 351.9488 0 89.4976 34.816 172.8512 90.0096 235.008l229.1712 288.9728c18.0224 22.7328 47.5136 22.6304 65.6384 0l228.2496-288.9728c57.856-62.6688 93.2864-143.0528 93.2864-235.008C864.8704 220.5696 706.7648 62.976 511.6928 62.976L511.6928 62.976zM511.6928 591.2576c-97.792 0-176.9472-78.9504-176.9472-176.3328 0-97.3824 79.1552-176.3328 176.9472-176.3328 97.6896 0 176.9472 78.9504 176.9472 176.3328C688.7424 512.3072 609.4848 591.2576 511.6928 591.2576L511.6928 591.2576z" /></svg>