<?xml version="1.0" standalone="no"?><!DOCTYPE svg PUBLIC "-//W3C//DTD SVG 1.1//EN" "http://www.w3.org/Graphics/SVG/1.1/DTD/svg11.dtd"><svg class="icon" width="200px" height="200.00px" viewBox="0 0 1024 1024" version="1.1" xmlns="http://www.w3.org/2000/svg"><path fill="#333333" d="M251.484 817.666h518.582c-0.025-2.981-1.99-4.927-3.235-7.111a60802.9 60802.9 0 0 0-67.657-118.503c-4.849-8.469-5.149-16.903 0.245-25.094 4.86-7.381 11.984-10.954 20.843-10.347 7.962 0.549 14.227 4.459 18.168 11.332 30.842 53.793 61.721 107.565 92.243 161.54 9.423 16.664-2.229 34.446-22.042 34.452-103.218 0.034-206.437 0.016-309.652 0.016-94.336 0-188.678-0.472-283.006 0.364-21.17 0.188-34.15-19.143-22.512-38.724 30.454-51.237 59.402-103.369 88.983-155.126 6.371-11.145 16.329-16.04 26.758-13.332 15.425 4.013 22.137 20.388 13.962 34.846-15.787 27.928-31.803 55.728-47.71 83.588-7.819 13.695-15.608 27.409-23.97 42.099z"  /><path fill="#333333" d="M506.427 159.686c-138.062 0-249.984 111.92-249.984 249.985 0 138.061 249.984 346.219 249.984 346.219S756.41 547.732 756.41 409.671c0-138.063-111.922-249.985-249.983-249.985z m0 353.577c-67.227 0-121.726-54.498-121.726-121.725S439.2 269.812 506.427 269.812s121.725 54.499 121.725 121.726c0.001 67.227-54.498 121.725-121.725 121.725z"  /></svg>